<?xml version="1.0" encoding="UTF-8"?>
<!-- Created with Inkscape (http://www.inkscape.org/) -->
<svg width="196.53mm" height="48.342mm" version="1.1" viewBox="0 0 196.53 48.342" xmlns="http://www.w3.org/2000/svg">
 <g transform="translate(-6.5738 -6.3911)">
  <g transform="matrix(.069791 0 0 .069791 4.5556 -23.004)">
   <g transform="translate(-343,-902)">
    <g font-family="Arial, Arial_MSFontService, sans-serif" font-size="761px" font-weight="400">
     <text transform="translate(1034.1 1872)" fill="#fe65a2" style="text-decoration-line:none">si</text>
     <text transform="translate(1583.5 1872)" fill="#3d2f76" style="text-decoration-line:none">Fl</text>
     <text transform="translate(2640 1872)" fill="#3d2f76" style="text-decoration-line:none">w</text>
    </g>
    <path d="m372.5 1980.4c67.346-1.29 90.554 19.54 136.77-84.92s98.853-533.72 140.55-541.85c41.692-8.13 68.084 467.63 109.61 493.06 41.524 25.44 95.915-358.61 139.54-340.44 43.622 18.16 73.328 380 122.2 449.44 48.86 69.45 122.92-36.97 170.99-32.78s78.4 58.09 117.45 57.93 77.9-58.93 116.83-58.9c38.94 0.04 75.13 58.69 116.77 59.11 41.65 0.41 92.4-56.67 133.11-56.64 40.7 0.03 69.97 57.13 111.13 56.82 41.16-0.3 87.05-58.7 135.82-58.65 48.78 0.05 105.29 59.55 156.81 58.93 51.53-0.61 102.23-53.05 152.35-62.64s141.34 66.66 200.83 66.66 93.05-65.21 156.12-66.66c65.09 2.57 127.1 61.94 174.08 64.81 51.15-3.46 82.47-58.04 158.39-62.41 75.92 3.68 189.63 57.2 263.66 62.93" fill="none" fill-rule="evenodd" stroke="#fe65a2" stroke-miterlimit="8" stroke-width="60.729"/>
    <path transform="matrix(-.70323 -.71096 -.71096 .70323 2710.1 1675.8)" d="m260.55 145.94c30.944 31.284 30.669 81.73-0.615 112.68-31.285 30.944-81.731 30.668-112.68-0.616s-30.669-81.73 0.615-112.68c31.285-30.944 81.731-30.668 112.68 0.616zm112.95-62.951-0.486 0.3029 0.397-0.393-48.684-49.219-42.249 26.304-16.411-8.7511-15.737-4.7572-10.543-46.474h-69.229v0.55848l-0.126-0.55848-10.372 45.718-16.674 4.8426-16.76 8.703-40.918-26.1 0.3026 0.4863-0.3927-0.3973-49.219 48.684 25.651 41.201-8.8854 16.664-4.203 14.532-48.207 10.384 0.55668 0.132-0.55848-6e-3 -0.75624 69.225 46.892 11.177 12.241 31.739 1.5814 2.559-26.409 41.403 0.4863-0.302-0.3969 0.392 48.684 49.22 41.689-25.955 2.542 1.609 29.057 11.573 10.701 47.174h69.229v-0.558l0.127 0.558 10.535-46.44 17.461-4.844 16.759-8.703 40.919 26.1-0.303-0.486 0.393 0.397 49.219-48.684-25.315-40.661 1.757-2.775 12.418-31.179 45.228-9.741-0.557-0.133 0.558 6e-3 0.757-69.225-46.576-11.102-4.365-15.735-8.571-16.506z" fill="#3d2f76" fill-rule="evenodd"/>
   </g>
  </g>
 </g>
</svg>
